<?xml version="1.0" standalone="no"?>
<!DOCTYPE svg PUBLIC "-//W3C//DTD SVG 1.1//EN" "http://www.w3.org/Graphics/SVG/1.1/DTD/svg11.dtd" >
<svg xmlns="http://www.w3.org/2000/svg">
<metadata>Generated by IcoMoon</metadata>
<defs>
<font id="tm" horiz-adv-x="1024">
<font-face units-per-em="1024" ascent="960" descent="-64" />
<missing-glyph horiz-adv-x="1024" />
<glyph unicode="&#x20;" horiz-adv-x="512" d="" />
<glyph unicode="&#xe900;" glyph-name="bars" d="M152 480c24.192 0 46.112 9.696 62.304 25.312l88.8-44.384c-0.448-3.616-1.088-7.168-1.088-10.912 0-49.632 40.384-89.984 90.016-89.984s90.016 40.384 90.016 90.016c0 13.856-3.392 26.816-9.024 38.56l120.48 120.48c11.744-5.6 24.704-9.024 38.56-9.024 49.632 0 90.016 40.384 90.016 90.016 0 9.344-1.824 18.176-4.48 26.656l104.672 78.496c14.272-9.536 31.392-15.136 49.824-15.136 49.632 0 90.016 40.384 90.016 90.016s-40.384 90.016-90.016 90.016-90.016-40.384-90.016-90.016c0-9.344 1.824-18.176 4.48-26.656l-104.672-78.496c-14.272 9.536-31.392 15.136-49.824 15.136-49.632 0-90.016-40.384-90.016-90.016 0-13.856 3.392-26.816 9.024-38.56l-120.48-120.48c-11.744 5.6-24.704 9.024-38.56 9.024-24.192 0-46.112-9.696-62.304-25.312l-88.8 44.384c0.448 3.616 1.088 7.168 1.088 10.912 0 49.632-40.384 90.016-90.016 90.016s-90.016-40.384-90.016-90.016 40.384-90.016 89.984-90.016zM994.016-4h-32v634.016c0 16.576-13.408 30.016-30.016 30.016h-120c-16.576 0-30.016-13.408-30.016-30.016v-634.016h-60v454.016c0 16.576-13.408 30.016-30.016 30.016h-120c-16.576 0-30.016-13.408-30.016-30.016v-454.016h-60v214.016c0 16.576-13.408 30.016-30.016 30.016h-120c-16.576 0-30.016-13.408-30.016-30.016v-214.016h-60v334.016c0 16.576-13.408 30.016-30.016 30.016h-120c-16.576 0-30.016-13.408-30.016-30.016v-334.016h-32c-16.576 0-30.016-13.408-30.016-30.016s13.408-30.016 30.016-30.016h964c16.576 0 30.016 13.408 30.016 30.016s-13.408 30.016-30.016 30.016z" />
<glyph unicode="&#xe901;" glyph-name="clipboard" d="M870.4 857.6h-214.272c-20.992 59.392-77.312 102.4-144.128 102.4s-123.136-43.008-144.128-102.4h-214.272c-56.576 0-102.4-45.824-102.4-102.4v-716.8c0-56.576 45.824-102.4 102.4-102.4h716.8c56.576 0 102.4 45.824 102.4 102.4v716.8c0 56.576-45.824 102.4-102.4 102.4zM512 857.6c28.16 0 51.2-22.784 51.2-51.2s-23.040-51.2-51.2-51.2-51.2 22.784-51.2 51.2 23.040 51.2 51.2 51.2zM614.4 140.8h-358.4v102.4h358.4v-102.4zM768 345.6h-512v102.4h512v-102.4zM768 550.4h-512v102.4h512v-102.4z" />
<glyph unicode="&#xe902;" glyph-name="edit-tools" d="M361.536 64.096l-232.256 232.256 561.76 561.76 232.256-232.256zM107.552 255.424l213.056-213.056-319.424-106.368zM994.72 696.992l-40.288-40.288-232.576 232.576 40.288 40.288c40.576 40.608 106.4 40.608 146.976 0l85.6-85.6c40.288-40.704 40.288-106.272 0-146.976z" />
<glyph unicode="&#xe903;" glyph-name="face-scan" d="M805.632 249.152l-139.904 27.968c-14.912 2.944-25.728 16.128-25.728 31.296v32.128c9.216 12.8 17.792 29.952 26.816 47.808 6.848 13.504 17.152 33.92 21.76 38.656 27.136 26.56 56.064 59.456 64.896 102.464 8.064 38.912 0.064 59.136-9.28 75.136 0 31.296 0 88.64-10.88 129.856-1.152 49.92-10.24 78.080-33.28 103.040-16.256 17.6-40.192 21.632-59.392 24.896-7.616 1.28-18.048 3.008-21.696 5.056-33.152 18.432-66.88 27.52-108.16 28.544-84.48-3.2-188.16-56.768-222.848-153.088-10.56-29.248-9.536-77.248-8.768-115.84l-0.896-22.464c-8.128-16-16.128-36.224-8.064-75.072 8.832-43.136 37.76-76.032 64.768-102.464 4.672-4.864 15.104-25.344 22.016-38.848 9.088-17.792 17.792-34.88 27.008-47.68v-32.128c0-15.168-10.816-28.352-25.664-31.36l-139.968-27.968c-89.472-17.92-154.368-97.088-154.368-188.288v-60.8c0-35.328 28.736-64 64-64h768c35.328 0 64 28.672 64 64v60.8c0 91.2-64.96 170.368-154.368 188.352zM224 960h-128c-17.664 0-32-14.336-32-32v-192c0-17.664 14.336-32 32-32s32 14.336 32 32v160h96c17.664 0 32 14.336 32 32s-14.336 32-32 32zM224 384h-96v160c0 17.664-14.336 32-32 32s-32-14.336-32-32v-192c0-17.664 14.336-32 32-32h128c17.664 0 32 14.336 32 32s-14.336 32-32 32zM928 960h-128c-17.664 0-32-14.336-32-32s14.336-32 32-32h96v-160c0-17.664 14.336-32 32-32s32 14.336 32 32v192c0 17.664-14.336 32-32 32zM928 576c-17.664 0-32-14.336-32-32v-160h-96c-17.664 0-32-14.336-32-32s14.336-32 32-32h128c17.664 0 32 14.336 32 32v192c0 17.664-14.336 32-32 32z" />
<glyph unicode="&#xe904;" glyph-name="filter" d="M407.968 401.408c5.408-5.728 8.576-13.056 8.576-20.992v-444.416l190.88 163.2v281.216c0 7.936 3.168 15.264 8.576 20.992l322.88 351.84h-853.824l322.88-351.84zM44.384 960h935.232v-143.136h-935.232v143.136z" />
<glyph unicode="&#xe905;" glyph-name="like" d="M1007.136 415.648c0 51.936-42.24 94.176-94.176 94.176h-170.752c26.432 47.872 40.512 93.056 40.512 155.456v10.080c0 0 0 0 0 0.032 0 33.568-12.992 65.216-36.544 89.12s-54.976 37.344-88.48 37.856c-0.32 0-0.64 0-0.96 0-32.48 0-60.896-25.856-63.584-58.048-12.736-153.568-160.704-232.704-259.68-280.832v15.904c0 16.608-13.472 30.048-30.048 30.048h-256.48c-16.608 0-30.048-13.472-30.048-30.048v-512.96c0-16.608 13.472-30.048 30.048-30.048h192.352c36.832 0 68.8 21.28 84.256 52.192 107.040-46.496 200.064-52.544 306.848-52.544 18.24 0 36.896 0.192 56.096 0.352 21.216 0.192 43.168 0.416 66.144 0.416h95.040c51.936 0 94.176 42.24 94.176 94.176 0 17.472-4.768 33.824-13.088 47.872 27.072 16.576 45.152 46.4 45.152 80.384 0 17.472-4.768 33.824-13.088 47.872 27.072 16.576 45.152 46.4 45.152 80.384 0 24.448-9.376 46.752-24.704 63.52 16 16.896 25.856 39.68 25.856 64.736zM273.344 30.56c0-18.784-15.264-34.048-34.048-34.048h-34.048v98.176c0 16.608-13.472 30.048-30.048 30.048s-30.048-13.472-30.048-30.048v-98.176h-68.128v452.864h196.352v-418.784zM848.832 321.504h62.976c18.784 0 34.048-15.264 34.048-34.048s-15.264-34.048-34.048-34.048h-62.976c-16.608 0-30.048-13.472-30.048-30.048s13.472-30.048 30.048-30.048h30.912c18.784 0 34.048-15.264 34.048-34.048s-15.264-34.048-34.048-34.048h-32.064c-16.608 0-30.048-13.472-30.048-30.048s13.472-30.048 30.048-30.048c18.784 0 34.048-15.264 34.048-34.048s-15.264-34.048-34.048-34.048h-95.040c-23.296 0-45.376-0.192-66.72-0.416-133.984-1.28-232.416-2.208-352.064 53.344v347.104c3.136 1.504 6.336 3.072 9.6 4.64 52.256 25.184 123.808 59.68 185.344 111.936 75.328 63.968 117.12 139.968 124.224 225.856 0.096 1.024 2.048 2.912 3.648 2.912 0 0 0.032 0 0.032 0 36.32-0.576 65.856-30.592 65.856-66.912v-10.080c0-62.496-16.288-102.016-50.368-155.456h-47.808c-16.608 0-30.048-13.472-30.048-30.048s13.472-30.048 30.048-30.048h64.32c0.032 0 0.064 0 0.096 0h224.128c18.784 0 34.048-15.264 34.048-34.048s-15.264-34.048-34.048-34.048h-64.128c-16.608 0-30.048-13.472-30.048-30.048s13.472-30.048 30.048-30.048zM944.608 737.888h-64.128c-16.608 0-30.048-13.472-30.048-30.048s13.472-30.048 30.048-30.048h64.128c16.608 0 30.048 13.472 30.048 30.048s-13.472 30.048-30.048 30.048zM495.776 737.888h-64.128c-16.608 0-30.048-13.472-30.048-30.048s13.472-30.048 30.048-30.048h64.128c16.608 0 30.048 13.472 30.048 30.048s-13.472 30.048-30.048 30.048zM617.984 889.44l-32.064 55.52c-8.288 14.368-26.688 19.296-41.056 11.008s-19.296-26.688-11.008-41.056l32.064-55.52c5.568-9.632 15.68-15.040 26.048-15.040 5.088 0 10.272 1.312 15.008 4.032 14.368 8.288 19.296 26.688 11.008 41.056zM831.392 955.968c-14.368 8.32-32.768 3.36-41.056-11.008l-32.064-55.52c-8.288-14.368-3.36-32.768 11.008-41.056 4.736-2.72 9.888-4.032 15.008-4.032 10.4 0 20.48 5.376 26.048 15.040l32.064 55.52c8.288 14.368 3.36 32.768-11.008 41.056z" />
<glyph unicode="&#xe906;" glyph-name="lock" d="M874.656 576h-64v85.344c0 164.672-133.984 298.656-298.656 298.656s-298.656-133.984-298.656-298.656v-85.344h-64c-11.808 0-21.344-9.536-21.344-21.344v-533.344c0-47.072 38.272-85.344 85.344-85.344h597.344c47.072 0 85.344 38.272 85.344 85.344v533.344c0 11.776-9.536 21.344-21.344 21.344zM575.872 130.368c0.672-6.016-1.28-12.064-5.312-16.576s-9.824-7.104-15.904-7.104h-85.344c-6.048 0-11.84 2.592-15.904 7.104s-5.984 10.56-5.312 16.576l13.472 121.024c-21.856 15.904-34.912 41.056-34.912 68.64 0 47.072 38.272 85.344 85.344 85.344s85.344-38.272 85.344-85.344c0-27.584-13.056-52.736-34.912-68.64l13.472-121.024zM682.656 576h-341.344v85.344c0 94.112 76.576 170.656 170.656 170.656s170.656-76.576 170.656-170.656v-85.344z" />
<glyph unicode="&#xe907;" glyph-name="logout" d="M640 405.344c-23.584 0-42.656-19.104-42.656-42.656v-170.656c0-23.52-19.104-42.656-42.656-42.656h-128v640c0 36.448-23.2 68.992-58.112 81.12l-12.64 4.224h198.752c23.552 0 42.656-19.168 42.656-42.656v-128c0-23.552 19.072-42.656 42.656-42.656s42.656 19.104 42.656 42.656v128c0 70.56-57.44 128-128 128h-458.656c-1.632 0-2.976-0.736-4.576-0.928-2.048 0.16-4.032 0.928-6.112 0.928-47.072 0-85.344-38.272-85.344-85.312v-768c0-36.448 23.2-68.992 58.112-81.12l256.768-85.6c8.704-2.688 17.344-3.968 26.464-3.968 47.072 0 85.312 38.272 85.312 85.344v42.656h128c70.56 0 128 57.44 128 128v170.656c0 23.552-19.072 42.656-42.656 42.656zM1011.488 563.488l-170.656 170.656c-12.192 12.192-30.56 15.872-46.496 9.28-15.904-6.624-26.336-22.176-26.336-39.424v-128h-170.656c-23.552 0-42.656-19.104-42.656-42.656s19.104-42.656 42.656-42.656h170.656v-128c0-17.248 10.4-32.8 26.336-39.424 15.968-6.624 34.304-2.944 46.496 9.248l170.656 170.656c16.672 16.672 16.672 43.648 0 60.32z" />
<glyph unicode="&#xe908;" glyph-name="menu" d="M32 640h960c17.664 0 32 14.336 32 32s-14.336 32-32 32h-960c-17.664 0-32-14.336-32-32s14.336-32 32-32zM992 480h-960c-17.664 0-32-14.336-32-32s14.336-32 32-32h960c17.664 0 32 14.336 32 32s-14.336 32-32 32zM992 256h-640c-17.664 0-32-14.336-32-32s14.336-32 32-32h640c17.664 0 32 14.336 32 32s-14.336 32-32 32z" />
<glyph unicode="&#xe909;" glyph-name="right-arrow" d="M1017.728 462.176l-373.312 373.312c-4.512 5.952-11.808 9.12-19.232 8.32-11.712-1.216-20.224-11.744-18.976-23.456v-190.208h-355.552c-11.776 0-21.344-9.568-21.344-21.344v-323.552c0-11.776 9.536-21.344 21.344-21.344h355.552v-191.552c-0.096-8.768 5.184-16.704 13.344-20 2.656-0.48 5.344-0.48 8 0 6.272-0.512 12.448 1.76 16.896 6.208l373.312 373.312c0.032 0.032 0.032 0.032 0.064 0.064 8.32 8.352 8.288 21.856-0.064 30.176zM114.208 630.176h42.656v-366.208h-42.656v366.208zM0 630.176h42.656v-366.208h-42.656v366.208z" />
<glyph unicode="&#xe90a;" glyph-name="scan-face-o" d="M805.632 249.088l-139.968 28.032c-14.848 2.944-25.664 16.192-25.664 31.36v32.128c9.216 12.8 17.792 29.888 26.816 47.744 6.848 13.504 17.152 33.92 21.76 38.656 27.136 26.56 56.064 59.456 64.896 102.464 8.064 38.912 0.064 59.136-9.28 75.136 0 31.296 0 88.64-10.88 129.856-1.152 49.92-10.24 78.080-33.28 103.040-16.256 17.6-40.192 21.632-59.392 24.896-7.616 1.28-18.048 3.008-21.696 5.056-33.152 18.432-66.88 27.52-108.16 28.544-84.48-3.136-188.16-56.768-222.912-153.024-10.496-29.248-9.536-77.248-8.768-115.84l-0.832-22.528c-8.128-16-16.128-36.224-8.128-75.072 8.896-43.072 37.824-76.032 64.96-102.528 4.608-4.864 15.040-25.344 21.952-38.848 9.088-17.728 17.728-34.816 26.944-47.616v-32.064c0-15.168-10.816-28.416-25.664-31.36l-139.968-28.032c-89.408-17.856-154.368-97.024-154.368-188.224v-60.864c0-35.264 28.672-64 64-64h768c35.328 0 64 28.736 64 64v60.864c0 91.2-64.96 170.368-154.368 188.224zM896 0h-768v60.864c0 60.8 43.264 113.6 102.848 125.504l139.968 28.032c44.736 8.896 77.184 48.448 77.184 94.080v43.52c0 8.576-3.456 16.832-9.536 22.784-5.504 5.376-17.344 28.608-24.384 42.496-12.096 23.616-22.464 43.968-34.24 55.488-21.248 20.736-41.664 43.584-47.040 69.696-4.096 20.16-1.216 25.856 2.432 33.088 3.264 6.4 8.192 16 8.192 29.056l-0.32 23.744c-0.512 27.968-1.536 74.816 4.992 92.864 24.832 68.864 103.616 108.48 163.072 110.784 29.312-0.768 52.288-6.848 76.736-20.416 13.248-7.36 28.608-9.92 42.112-12.224 7.616-1.28 20.288-3.392 22.976-5.184 8.64-9.344 15.808-20.736 16.384-64.704 0.064-2.88 0.512-5.76 1.28-8.512 9.536-32.704 9.536-89.216 9.536-116.288 0-13.056 4.928-22.656 8.192-29.056 3.712-7.232 6.592-12.928 2.368-33.216-5.312-26.048-25.664-48.832-46.912-69.568-11.904-11.584-22.208-32-34.048-55.552-7.104-13.952-18.816-37.12-24.256-42.496-6.080-5.952-9.536-14.208-9.536-22.784v-43.52c0-45.568 32.448-85.184 77.184-94.144l139.968-28.032c59.584-11.84 102.848-64.64 102.848-125.44v-60.864zM224 960h-128c-17.664 0-32-14.336-32-32v-192c0-17.664 14.336-32 32-32s32 14.336 32 32v160h96c17.664 0 32 14.336 32 32s-14.336 32-32 32zM224 384h-96v160c0 17.664-14.336 32-32 32s-32-14.336-32-32v-192c0-17.664 14.336-32 32-32h128c17.664 0 32 14.336 32 32s-14.336 32-32 32zM928 960h-128c-17.664 0-32-14.336-32-32s14.336-32 32-32h96v-160c0-17.664 14.336-32 32-32s32 14.336 32 32v192c0 17.664-14.336 32-32 32zM928 576c-17.664 0-32-14.336-32-32v-160h-96c-17.664 0-32-14.336-32-32s14.336-32 32-32h128c17.664 0 32 14.336 32 32v192c0 17.664-14.336 32-32 32z" />
<glyph unicode="&#xe90b;" glyph-name="user1" d="M504.704 466.72c67.776 0 126.432 24.32 174.4 72.256s72.256 106.624 72.256 174.368c0 67.744-24.32 126.432-72.256 174.368s-106.624 72.256-174.368 72.256c-67.776 0-126.432-24.32-174.368-72.256s-72.256-106.624-72.256-174.368c0-67.776 24.32-126.432 72.256-174.4s106.624-72.256 174.368-72.256zM936.256 172.608c-1.376 19.968-4.192 41.728-8.288 64.704-4.16 23.168-9.504 45.056-15.904 65.056-6.624 20.672-15.616 41.088-26.752 60.672-11.552 20.32-25.12 38.016-40.32 52.544-15.904 15.232-35.392 27.456-57.92 36.384-22.464 8.896-47.328 13.376-73.952 13.376-10.464 0-20.576-4.288-40.096-16.992-12-7.84-26.080-16.896-41.76-26.912-13.408-8.544-31.584-16.544-54.016-23.808-21.888-7.072-44.128-10.688-66.080-10.688s-44.16 3.584-66.080 10.688c-22.432 7.232-40.608 15.264-53.984 23.808-15.552 9.92-29.6 18.976-41.792 26.944-19.488 12.704-29.632 16.992-40.064 16.992-26.624 0-51.488-4.512-73.952-13.408-22.528-8.928-42.016-21.152-57.952-36.384-15.2-14.56-28.768-32.256-40.32-52.544-11.104-19.584-20.128-40-26.752-60.672-6.4-20-11.744-41.888-15.904-65.056-4.128-22.944-6.912-44.736-8.288-64.736-1.344-19.584-2.048-39.936-2.048-60.48 0-53.44 16.992-96.736 50.496-128.64 33.088-31.488 76.896-47.456 130.144-47.456h493.056c53.248 0 97.024 15.968 130.112 47.456 33.504 31.904 50.496 75.168 50.496 128.64 0 20.64-0.704 40.992-2.080 60.48z" />
<glyph unicode="&#xe90c;" glyph-name="whatsapp1" d="M512.128 960h-0.256c-282.304 0-511.872-229.632-511.872-512 0-112 36.096-215.808 97.472-300.096l-63.808-190.208 196.8 62.912c80.96-53.632 177.536-84.608 281.664-84.608 282.304 0 511.872 229.696 511.872 512s-229.568 512-511.872 512zM810.048 236.992c-12.352-34.88-61.376-63.808-100.48-72.256-26.752-5.696-61.696-10.24-179.328 38.528-150.464 62.336-247.36 215.232-254.912 225.152-7.232 9.92-60.8 80.96-60.8 154.432s37.312 109.248 52.352 124.608c12.352 12.608 32.768 18.368 52.352 18.368 6.336 0 12.032-0.32 17.152-0.576 15.040-0.64 22.592-1.536 32.512-25.28 12.352-29.76 42.432-103.232 46.016-110.784 3.648-7.552 7.296-17.792 2.176-27.712-4.8-10.24-9.024-14.784-16.576-23.488s-14.72-15.36-22.272-24.704c-6.912-8.128-14.72-16.832-6.016-31.872 8.704-14.72 38.784-63.808 83.072-103.232 57.152-50.88 103.488-67.136 120.064-74.048 12.352-5.12 27.072-3.904 36.096 5.696 11.456 12.352 25.6 32.832 40 52.992 10.24 14.464 23.168 16.256 36.736 11.136 13.824-4.8 86.976-40.96 102.016-48.448 15.040-7.552 24.96-11.136 28.608-17.472 3.584-6.336 3.584-36.096-8.768-71.040z" />
<glyph unicode="&#xe90d;" glyph-name="bracket" horiz-adv-x="832" d="M122.355 928.729h-84.494v-84.494h9.373v75.12h75.121zM122.346-29.633h-84.494v84.494h9.374v-75.12h75.12zM711.925-29.632h84.494v84.493h-9.373v-75.12h-75.121zM711.934 928.729h84.494v-84.494h-9.374v75.121h-75.12z" />
<glyph unicode="&#xe90e;" horiz-adv-x="1954" d="M1914.016 131.267h-1669.167v790.426h7.285v-783.137h1661.882z" />
<glyph unicode="&#xe90f;" horiz-adv-x="1954" d="M253.045 889.149h1660.971v-5.468h-1660.971v5.468z" />
<glyph unicode="&#xe910;" horiz-adv-x="1954" d="M253.045 742.408h1660.971v-5.468h-1660.971v5.468z" />
<glyph unicode="&#xe911;" horiz-adv-x="1954" d="M253.045 595.667h1660.971v-5.468h-1660.971v5.468z" />
<glyph unicode="&#xe912;" horiz-adv-x="1954" d="M253.045 448.915h1660.971v-5.46h-1660.971v5.46z" />
<glyph unicode="&#xe913;" horiz-adv-x="1954" d="M253.045 302.182h1660.971v-5.468h-1660.971v5.468z" />
<glyph unicode="&#xe914;" horiz-adv-x="1954" d="M334.586 450.888c0-9.036-7.325-16.361-16.361-16.361s-16.361 7.325-16.361 16.361c0 9.036 7.325 16.361 16.361 16.361s16.361-7.325 16.361-16.361z" />
<glyph unicode="&#xe915;" horiz-adv-x="1954" d="M476.355 450.888c0-9.036-7.325-16.361-16.361-16.361s-16.361 7.325-16.361 16.361c0 9.036 7.325 16.361 16.361 16.361s16.361-7.325 16.361-16.361z" />
<glyph unicode="&#xe916;" horiz-adv-x="1954" d="M646.351 743.502c0-9.036-7.325-16.361-16.361-16.361s-16.361 7.325-16.361 16.361c0 9.036 7.325 16.361 16.361 16.361s16.361-7.325 16.361-16.361z" />
<glyph unicode="&#xe917;" horiz-adv-x="1954" d="M800.131 153.67c0-9.036-7.325-16.361-16.361-16.361s-16.361 7.325-16.361 16.361c0 9.036 7.325 16.361 16.361 16.361s16.361-7.325 16.361-16.361z" />
<glyph unicode="&#xe918;" horiz-adv-x="1954" d="M957.518 589.988c0-9.036-7.325-16.361-16.361-16.361s-16.361 7.325-16.361 16.361c0 9.036 7.325 16.361 16.361 16.361s16.361-7.325 16.361-16.361z" />
<glyph unicode="&#xe919;" horiz-adv-x="1954" d="M1131.102 589.988c0-9.036-7.325-16.361-16.361-16.361s-16.361 7.325-16.361 16.361c0 9.036 7.325 16.361 16.361 16.361s16.361-7.325 16.361-16.361z" />
<glyph unicode="&#xe91a;" horiz-adv-x="1954" d="M1251.277 311.488c0-9.036-7.325-16.361-16.361-16.361s-16.361 7.325-16.361 16.361c0 9.036 7.325 16.361 16.361 16.361s16.361-7.325 16.361-16.361z" />
<glyph unicode="&#xe91b;" horiz-adv-x="1954" d="M1405.784 311.488c0-9.036-7.325-16.361-16.361-16.361s-16.361 7.325-16.361 16.361c0 9.036 7.325 16.361 16.361 16.361s16.361-7.325 16.361-16.361z" />
<glyph unicode="&#xe91c;" horiz-adv-x="1954" d="M1562.202 452.639c0-9.036-7.325-16.361-16.361-16.361s-16.361 7.325-16.361 16.361c0 9.036 7.325 16.361 16.361 16.361s16.361-7.325 16.361-16.361z" />
<glyph unicode="&#xe91d;" horiz-adv-x="1954" d="M1699.543 301.947c0-9.036-7.325-16.361-16.361-16.361s-16.361 7.325-16.361 16.361c0 9.036 7.325 16.361 16.361 16.361s16.361-7.325 16.361-16.361z" />
<glyph unicode="&#xe91e;" horiz-adv-x="1063" d="M501.335 947.096l-484.812-391.744v-73.006h1022.597v73.006l-484.813 391.744c-15.45 12.484-37.522 12.484-52.972 0z" />
<glyph unicode="&#xe91f;" horiz-adv-x="1063" d="M954.84 77.46h-854.038c-23.271 0-42.139 18.867-42.139 42.139v798.261c0 23.271 18.867 42.139 42.139 42.139h854.037c23.271 0 42.139-18.868 42.139-42.139v-798.262c0.001-23.274-18.865-42.139-42.139-42.139z" />
<glyph unicode="&#xe920;" horiz-adv-x="1063" d="M996.98 143.074v-16.404c0-27.166-22.048-49.212-49.212-49.212h-839.891c-27.165 0-49.211 22.047-49.211 49.212v16.404h938.314z" />
<glyph unicode="&#xe921;" horiz-adv-x="1063" d="M256.718 826.56h542.207v-30.904h-542.207v30.904z" />
<glyph unicode="&#xe922;" horiz-adv-x="1063" d="M256.718 702.954h542.207v-30.904h-542.207v30.904z" />
<glyph unicode="&#xe923;" horiz-adv-x="1063" d="M256.718 576.534h542.207v-30.905h-542.207v30.905z" />
<glyph unicode="&#xe924;" horiz-adv-x="1063" d="M256.718 450.112h542.207v-30.904h-542.207v30.904z" />
<glyph unicode="&#xe925;" horiz-adv-x="1063" d="M1039.119 554.417v-576.278c0-23.262-18.878-42.139-42.139-42.139h-938.317c-23.262 0-42.139 18.878-42.139 42.139v576.278l516.919-407.72 505.677 407.72z" />
<glyph unicode="&#xe926;" horiz-adv-x="1063" d="M1033.435-42.929l-473.545 381.812c-15.437 12.445-37.465 12.445-52.9 0l-480.767-387.632c7.732-9.314 19.39-15.25 32.44-15.25h938.314c15.59 0 29.171 8.486 36.458 21.071z" />
<glyph unicode="&#xe927;" horiz-adv-x="1063" d="M71.801 106.46v798.264c0 23.271 18.868 42.139 42.14 42.139h854.035c8.271 0 15.96-2.418 22.468-6.534-7.466 11.806-20.603 19.67-35.605 19.67h-854.038c-23.271 0-42.139-18.868-42.139-42.139v-798.262c0-15.004 7.864-28.14 19.672-35.609-4.116 6.51-6.534 14.2-6.534 22.47z" />
<glyph unicode="&#xe928;" glyph-name="photo_corner" horiz-adv-x="1452" d="M164.756 925.76h-139.227v-136.765h16.883v119.882h122.344zM1287.801 925.76h139.227v-136.765h-16.883v119.882h-122.344zM1287.801-33.609h139.227v136.762h-16.883v-119.879h-122.344zM164.756-33.609h-139.227v136.762h16.883v-119.879h122.344z" />
<glyph unicode="&#xe929;" horiz-adv-x="1078" d="M255.711 917.333h284.444v-170.667h-284.444v170.667z" />
<glyph unicode="&#xe92a;" horiz-adv-x="1078" d="M540.155 917.333h284.444v-170.667h-284.444v170.667z" />
<glyph unicode="&#xe92b;" horiz-adv-x="1078" d="M540.155 320v426.667h-512v-597.333h227.556v170.667h284.444zM255.711 576h227.556v-85.333h-227.556v85.333z" />
<glyph unicode="&#xe92c;" horiz-adv-x="1078" d="M1052.155 746.667h-512v-426.667h284.444v-170.667h227.556v597.333zM653.933 490.667h-85.333v85.333h85.333v-85.333zM824.6 490.667h-85.333v85.333h85.333v-85.333z" />
<glyph unicode="&#xe92d;" horiz-adv-x="1078" d="M540.155 320h-284.444v-341.333h284.444z" />
<glyph unicode="&#xe92e;" horiz-adv-x="1078" d="M540.155 320v-341.333h284.444v341.333z" />
<glyph unicode="&#xe92f;" horiz-adv-x="1078" d="M739.266 576h85.333v-85.333h-85.333v85.333z" />
<glyph unicode="&#xe930;" horiz-adv-x="1078" d="M568.6 576h85.333v-85.333h-85.333v85.333z" />
<glyph unicode="&#xe931;" horiz-adv-x="1078" d="M255.711 576h227.556v-85.333h-227.556v85.333z" />
<glyph unicode="&#xe932;" glyph-name="skyline" horiz-adv-x="1981" d="M113.398 355.104h115.333v-297.483h5.492v302.975h-126.316v-302.975h5.49zM228.731 369.444h5.492v105.665l112.771 45.107v-333.839h5.492v359.554l11.714 12.465v-371.408h5.492v420.749h17.696v-358.812h5.49v364.304h-28.679v-46.814l-17.207-18.307v-21.978l-118.263-47.302zM292.401 117.726v5.492h-46.585v-20.746h45.974v5.49h-40.482v9.763zM292.401 148.848v5.492h-46.585v-20.746h45.974v5.49h-40.482v9.763zM330.332 179.97v5.492h-84.515v-20.748h45.974v5.492h-40.482v9.763zM245.817 195.836h87.263v20.746h-87.263v-20.746zM251.309 211.092h76.278v-9.763h-76.278v9.763zM245.817 226.958h87.263v20.746h-87.263v-20.746zM251.309 242.212h76.278v-9.763h-76.278v9.763zM245.817 258.078h87.263v20.748h-87.263v-20.748zM251.309 273.334h76.278v-9.763h-76.278v9.763zM245.817 289.2h87.263v20.746h-87.263v-20.746zM251.309 304.456h76.278v-9.763h-76.278v9.763zM245.817 320.322h87.263v20.746h-87.263v-20.746zM251.309 335.577h76.278v-9.763h-76.278v9.763zM245.817 351.444h87.263v20.746h-87.263v-20.746zM251.309 366.697h76.278v-9.763h-76.278v9.763zM245.817 382.565h87.263v20.746h-87.263v-20.746zM251.309 397.819h76.278v-9.763h-76.278v9.763zM245.817 413.685h87.263v20.746h-87.263v-20.746zM251.309 428.941h76.278v-9.763h-76.278v9.763zM333.079 465.555h-87.263v-20.746h87.263v20.746zM327.587 450.3h-76.278v9.763h76.278v-9.763zM588.458 57.621v159.726h-87.871v22.73h-113.196v-53.7h5.49v48.208h102.214v-22.73h87.871v-154.234zM430.562 494.904l12.721 3.594v-249.572h5.492v251.126l12.813 3.62v-254.746h5.492v256.299l12.815 3.62v-259.919h5.492v261.472l12.815 3.622v-265.094h5.492v266.645l17.944 5.071v-68.205h34.782v156.196l55.149 22.294h41.877v-381.694h5.49v397.254h-5.49v-10.070h-42.944l-59.574-24.082v-154.406h-23.799v69.971l-102.058-28.841v-250.134h5.49zM779.762 57.621v182.456h-175.745v-182.456h5.492v176.964h164.76v-176.964zM621.103 106.362v-18.993h140.962v5.492h-135.47v13.501zM762.066 120.321h-135.47v13.501h-5.492v-18.993h140.962zM762.066 147.781h-135.47v13.501h-5.492v-18.993h140.962zM762.066 175.241h-135.47v13.502h-5.492v-18.995h140.962zM762.066 202.702h-135.47v13.501h-5.492v-18.995h140.962zM636.971 270.895h-65.906v-16.477h5.492v10.983h60.414zM571.066 278.215h5.492v10.985h60.414v5.492h-65.906zM571.066 302.015h5.492v10.985h60.414v5.492h-65.906zM571.066 325.814h5.492v10.985h60.414v5.49h-65.906zM571.066 349.612h5.492v10.985h60.414v5.492h-65.906zM571.066 373.411h5.492v10.985h60.414v5.492h-65.906zM571.066 397.209h5.492v10.985h60.414v5.492h-65.906zM571.066 421.008h5.492v10.985h60.414v5.492h-65.906zM571.066 444.807h5.492v10.985h60.414v5.49h-65.906zM571.066 468.607h5.492v10.983h60.414v5.492h-65.906zM571.066 492.404h5.492v10.985h60.414v5.49h-65.906zM571.066 516.204h5.492v10.983h60.414v5.494h-65.906zM571.066 540.003h5.492v10.983h60.414v5.492h-65.906zM571.066 563.8h5.492v10.985h60.414v5.492h-65.906zM636.971 598.584v5.49h-65.906v-16.475h5.492v10.985zM690.211 248.926h5.492v223.8h175.592v-274.6h5.492v280.093h-186.577zM786.247 569.058l68.983 38.679h63.665v117.163h54.919v-51.563h5.49v57.054h-65.904v-117.161h-59.603l-73.043-40.955v-89.938h5.492zM1060.464 57.621v599.543h-121.432v-155.037h5.49v149.547h29.292v-594.053h5.49v594.053h75.667v-594.053zM988.002 101.099h5.49v8.696h48.514v5.492h-54.004zM1042.006 137.255h-54.004v-14.188h5.49v8.696h48.514zM1042.006 159.222h-54.004v-14.186h5.49v8.694h48.514zM1042.006 181.191h-54.004v-14.188h5.49v8.696h48.514zM1042.006 203.159h-54.004v-14.188h5.49v8.696h48.514zM1042.006 225.128h-54.004v-14.188h5.49v8.694h48.514zM1042.006 247.095h-54.004v-14.188h5.49v8.696h48.514zM1042.006 269.063h-54.004v-14.188h5.49v8.696h48.514zM1042.006 291.032h-54.004v-14.188h5.49v8.694h48.514zM1042.006 312.999h-54.004v-14.188h5.49v8.696h48.514zM1042.006 334.967h-54.004v-14.188h5.49v8.696h48.514zM1042.006 356.936h-54.004v-14.188h5.49v8.696h48.514zM1042.006 378.903h-54.004v-14.188h5.49v8.696h48.514zM1042.006 400.871h-54.004v-14.186h5.49v8.694h48.514zM1042.006 422.84h-54.004v-14.188h5.49v8.696h48.514zM1042.006 444.807h-54.004v-14.188h5.49v8.696h48.514zM1042.006 466.777h-54.004v-14.188h5.49v8.694h48.514zM1042.006 488.744h-54.004v-14.188h5.49v8.696h48.514zM1042.006 510.711h-54.004v-14.188h5.49v8.696h48.514zM1042.006 532.68h-54.004v-14.188h5.49v8.694h48.514zM1042.006 554.648h-54.004v-14.188h5.49v8.696h48.514zM1042.006 576.615h-54.004v-14.188h5.49v8.696h48.514zM1042.006 598.584h-54.004v-14.188h5.49v8.694h48.514zM1042.006 620.552h-54.004v-14.188h5.49v8.696h48.514zM1042.006 642.519h-54.004v-14.186h5.49v8.694h48.514zM1086.546 550.709h-5.492v-391.028h5.492v318.060l120.82-65.011v-355.109h5.49v558.134l123.565 36.614v74.393l26.121 36.4h20.559v-522.169h5.492v527.661h-28.868l-23.304-32.472v12.82h-5.49v-92.533l-123.565-36.612v-200.888l-120.82 65.007zM1519.477 57.621v171.167h-241.636v-171.167h5.492v165.675h230.653v-165.675zM1673.247 186.988h5.492v120.29h-185.805v-65.194h5.492v59.702h174.82zM1420.497 584.853h142.793v-265.446h5.492v270.938h-153.777v-349.657h5.492zM1673.247 567.853l-63.151-34.892v-213.554h5.492v210.316l63.151 34.892v72.412h79.632v-438.445h5.492v443.938h-90.617zM1871.869 57.621v126.202h-170.245v-5.492h164.751v-16.361h-92.96v-5.492h92.96v-14.645h-92.96v-5.492h92.96v-14.645h-92.96v-5.492h92.96v-14.647h-92.96v-5.49h92.96v-14.647h-92.96v-5.49h92.96v-18.307zM1687.896 219.177h5.492v8.238h54.397v5.492h-59.889zM1687.896 241.145h5.492v8.239h54.397v5.49h-59.889zM1687.896 263.112h5.492v8.239h54.397v5.492h-59.889zM1687.896 285.081h5.492v8.238h54.397v5.492h-59.889zM1687.896 307.049h5.492v8.239h54.397v5.49h-59.889zM1687.896 329.018h5.492v8.238h54.397v5.492h-59.889zM1687.896 350.985h5.492v8.239h54.397v5.49h-59.889zM1687.896 372.953h5.492v8.239h54.397v5.492h-59.889zM1687.896 394.922h5.492v8.238h54.397v5.492h-59.889zM1687.896 416.889h5.492v8.239h54.397v5.49h-59.889zM1687.896 438.857h5.492v8.239h54.397v5.492h-59.889zM1687.896 460.826h5.492v8.238h54.397v5.492h-59.889zM1687.896 482.793h5.492v8.239h54.397v5.49h-59.889zM1687.896 504.761h5.492v8.239h54.397v5.492h-59.889zM1687.896 526.73h5.492v8.238h54.397v5.492h-59.889zM1687.896 548.697h5.492v8.239h54.397v5.49h-59.889zM1687.896 570.666h5.492v8.238h54.397v5.492h-59.889zM1687.896 592.634h5.492v8.238h54.397v5.492h-59.889zM1747.785 622.84v5.492h-59.889v-13.732h5.492v8.239zM1295.234 91.031h203.193v16.934h-203.193v-16.934zM1300.726 102.473h192.209v-5.951h-192.209v5.951zM1498.427 133.595h-203.193v-16.934h203.193v16.934zM1492.935 122.151h-192.209v5.949h192.209v-5.949zM1498.427 159.222h-203.193v-16.934h203.193v16.934zM1492.935 147.781h-192.209v5.949h192.209v-5.949zM1498.427 184.852h-203.193v-16.934h203.193v16.934zM1492.935 173.411h-192.209v5.951h192.209v-5.951zM1498.427 210.481h-203.193v-16.934h203.193v16.934zM1492.935 199.040h-192.209v5.949h192.209v-5.949zM1228.18 83.707h26.24v24.714h-26.24v-24.714zM1233.67 102.929h15.256v-13.73h-15.256v13.73zM1254.42 141.374h-26.24v-24.714h26.24v24.714zM1248.928 122.151h-15.256v13.73h15.256v-13.73zM1254.42 174.326h-26.24v-24.714h26.24v24.714zM1248.928 155.103h-15.256v13.73h15.256v-13.73zM1254.42 240.23h-26.24v-24.714h26.24v24.714zM1248.928 221.007h-15.256v13.73h15.256v-13.73zM1338.020 248.469h26.24v24.714h-26.24v-24.714zM1343.513 267.691h15.254v-13.73h-15.254v13.73zM1301.406 248.469h26.24v24.714h-26.24v-24.714zM1306.899 267.691h15.254v-13.73h-15.254v13.73zM1264.794 248.469h26.238v24.714h-26.238v-24.714zM1270.284 267.691h15.256v-13.73h-15.256v13.73zM1254.42 273.182h-26.24v-24.714h26.24v24.714zM1248.928 253.959h-15.256v13.73h15.256v-13.73zM1338.020 281.419h26.24v24.714h-26.24v-24.714zM1343.513 300.641h15.254v-13.73h-15.254v13.73zM1301.406 281.419h26.24v24.714h-26.24v-24.714zM1306.899 300.641h15.254v-13.73h-15.254v13.73zM1338.020 314.373h26.24v24.713h-26.24v-24.713zM1343.513 333.595h15.254v-13.73h-15.254v13.73zM1301.406 314.373h26.24v24.713h-26.24v-24.713zM1306.899 333.595h15.254v-13.73h-15.254v13.73zM1264.794 314.373h26.238v24.713h-26.238v-24.713zM1270.284 333.595h15.256v-13.73h-15.256v13.73zM1254.42 339.086h-26.24v-24.714h26.24v24.714zM1248.928 319.863h-15.256v13.73h15.256v-13.73zM1301.406 347.323h26.24v24.714h-26.24v-24.714zM1306.899 366.545h15.254v-13.73h-15.254v13.73zM1264.794 347.323h26.238v24.714h-26.238v-24.714zM1270.284 366.545h15.256v-13.73h-15.256v13.73zM1254.42 372.038h-26.24v-24.714h26.24v24.714zM1248.928 352.815h-15.256v13.73h15.256v-13.73zM1338.020 380.277h26.24v24.714h-26.24v-24.714zM1343.513 399.499h15.254v-13.73h-15.254v13.73zM1301.406 380.277h26.24v24.714h-26.24v-24.714zM1306.899 399.499h15.254v-13.73h-15.254v13.73zM1264.794 380.277h26.238v24.714h-26.238v-24.714zM1270.284 399.499h15.256v-13.73h-15.256v13.73zM1338.020 413.229h26.24v24.714h-26.24v-24.714zM1343.513 432.451h15.254v-13.73h-15.254v13.73zM1264.794 413.229h26.238v24.714h-26.238v-24.714zM1270.284 432.451h15.256v-13.73h-15.256v13.73zM1254.42 437.941h-26.24v-24.714h26.24v24.714zM1248.928 418.719h-15.256v13.73h15.256v-13.73zM1338.020 446.181h26.24v24.714h-26.24v-24.714zM1343.513 465.403h15.254v-13.73h-15.254v13.73zM1301.406 446.181h26.24v24.714h-26.24v-24.714zM1306.899 465.403h15.254v-13.73h-15.254v13.73zM1264.794 446.181h26.238v24.714h-26.238v-24.714zM1270.284 465.403h15.256v-13.73h-15.256v13.73zM1254.42 470.895h-26.24v-24.714h26.24v24.714zM1248.928 451.673h-15.256v13.73h15.256v-13.73zM1338.020 479.133h26.24v24.714h-26.24v-24.714zM1343.513 498.355h15.254v-13.73h-15.254v13.73zM1301.406 479.133h26.24v24.714h-26.24v-24.714zM1306.899 498.355h15.254v-13.73h-15.254v13.73zM1254.42 503.845h-26.24v-24.714h26.24v24.714zM1248.928 484.623h-15.256v13.73h15.256v-13.73zM1338.020 512.085h26.24v24.714h-26.24v-24.714zM1343.513 531.305h15.254v-13.73h-15.254v13.73zM1301.406 512.085h26.24v24.714h-26.24v-24.714zM1306.899 531.305h15.254v-13.73h-15.254v13.73zM1264.794 512.085h26.238v24.714h-26.238v-24.714zM1270.284 531.305h15.256v-13.73h-15.256v13.73zM1254.42 536.799h-26.24v-24.714h26.24v24.714zM1248.928 517.577h-15.256v13.73h15.256v-13.73zM1338.020 545.037h26.24v24.714h-26.24v-24.714zM1343.513 564.259h15.254v-13.73h-15.254v13.73zM1301.406 545.037h26.24v24.714h-26.24v-24.714zM1306.899 564.259h15.254v-13.73h-15.254v13.73zM1264.794 545.037h26.238v24.714h-26.238v-24.714zM1270.284 564.259h15.256v-13.73h-15.256v13.73zM1338.020 577.989h26.24v24.714h-26.24v-24.714zM1343.513 597.209h15.254v-13.73h-15.254v13.73zM1364.259 636.112h-26.24v-24.714h26.24v24.714zM1358.766 616.89h-15.254v13.73h15.254v-13.73zM1327.646 636.112h-26.24v-24.714h26.24v24.714zM1322.152 616.89h-15.254v13.73h15.254v-13.73zM1291.032 602.703h-26.238v-24.714h26.238v24.714zM1285.54 583.481h-15.256v13.73h15.256v-13.73zM1254.42 602.703h-26.24v-24.714h26.24v24.714zM1248.928 583.481h-15.256v13.73h15.256v-13.73zM1678.739 56.634v29.934c15.492 1.394 27.68 14.438 27.68 30.287 0 8.338-3.369 16.183-9.334 21.909 3.16 4.398 4.876 9.668 4.876 15.107 0 14.318-11.65 25.965-25.967 25.965-12.653 0-23.207-9.101-25.494-21.098-3.857 3.007-8.689 4.819-13.948 4.819-12.534 0-22.732-10.198-22.732-22.732 0-4.652 1.43-9.162 4.077-12.956-5.060-4.979-7.915-11.731-7.915-18.907 0-13.723 10.46-25.048 23.825-26.427v-25.406h5.492v25.404c7.401 0.765 13.893 4.594 18.228 10.176 4.561-3.504 9.967-5.635 15.721-6.149v-29.928h5.49zM1639.298 88.085v8.54l10.469 10.469-3.882 3.882-6.587-6.585v12.991h-5.492v-3.926l-7.499 7.499-3.884-3.884 11.383-11.381v-17.607c-10.326 1.353-18.333 10.189-18.333 20.878 0 6.413 2.877 12.402 7.896 16.435l2.254 1.81-1.926 2.158c-2.83 3.171-4.39 7.238-4.39 11.458 0 9.508 7.735 17.242 17.242 17.242s17.242-7.733 17.242-17.242c0-4.218-1.559-8.289-4.387-11.458l-1.926-2.158 2.254-1.81c5.017-4.034 7.898-10.024 7.898-16.435 0.002-10.689-8.005-19.525-18.333-20.876zM1660.432 97.388c1.705 3.504 2.69 7.421 2.69 11.575 0 7.172-2.855 13.924-7.913 18.907 2.643 3.794 4.077 8.305 4.077 12.956 0 4.603-1.385 8.885-3.747 12.468-0.006 0.193-0.020 0.383-0.020 0.578 0 11.289 9.186 20.473 20.476 20.473s20.475-9.184 20.475-20.473c0-5.010-1.85-9.844-5.212-13.609l-1.926-2.158 2.254-1.81c5.938-4.772 9.341-11.856 9.341-19.439 0-12.818-9.73-23.401-22.189-24.775v10.623l12.292 12.294-3.882 3.882-8.41-8.41v16.165h-5.492v-5.632l-9.468 9.468-3.884-3.884 13.352-13.35v-21.157c-4.709 0.513-9.121 2.342-12.815 5.307zM893.584 56.889v33.148c17.001 1.405 30.414 15.665 30.414 33.020 0 9.169-3.737 17.786-10.345 24.041 3.528 4.825 5.445 10.633 5.445 16.629 0 15.584-12.677 28.261-28.261 28.261-13.924 0-25.499-10.13-27.812-23.401-4.245 3.44-9.646 5.512-15.525 5.512-13.623 0-24.707-11.084-24.707-24.707 0-5.133 1.603-10.106 4.563-14.267-5.61-5.435-8.78-12.853-8.78-20.741 0-15.021 11.513-27.395 26.178-28.786v-28.168h5.492v28.168c8.25 0.781 15.479 5.052 20.245 11.307 5.082-3.968 11.146-6.349 17.601-6.875v-33.143h5.492zM850.247 91.129v9.811l11.582 11.584-3.882 3.884-7.7-7.702v14.931h-5.492v-4.968l-8.701 8.701-3.882-3.884 12.584-12.584v-19.774c-11.628 1.366-20.686 11.267-20.686 23.257 0 7.128 3.198 13.787 8.777 18.269l2.254 1.81-1.926 2.158c-3.154 3.532-4.889 8.065-4.889 12.769 0 10.594 8.619 19.215 19.215 19.215s19.217-8.621 19.217-19.215c0-4.702-1.738-9.237-4.893-12.769l-1.926-2.158 2.254-1.81c5.578-4.482 8.779-11.142 8.779-18.269 0.002-11.99-9.055-21.89-20.684-23.257zM873.399 101.585c1.918 3.864 3.026 8.201 3.026 12.8 0 7.885-3.171 15.305-8.779 20.741 2.958 4.163 4.563 9.136 4.563 14.267 0 5.032-1.52 9.714-4.113 13.622-0.009 0.238-0.028 0.473-0.028 0.715 0 12.556 10.214 22.769 22.769 22.769 12.556 0 22.771-10.213 22.771-22.769 0-5.571-2.059-10.944-5.795-15.131l-1.926-2.158 2.254-1.81c6.587-5.294 10.367-13.154 10.367-21.571 0-14.328-10.952-26.145-24.924-27.528v12.090l13.587 13.589-3.884 3.882-9.703-9.705v18.417h-5.492v-6.842l-10.867 10.867-3.882-3.884 14.749-14.749v-23.673c-5.41 0.53-10.482 2.626-14.693 6.061zM368.632 56.634v29.934c15.492 1.394 27.68 14.438 27.68 30.287 0 8.34-3.371 16.183-9.332 21.909 3.16 4.398 4.874 9.668 4.874 15.107 0 14.318-11.648 25.965-25.967 25.965-12.653 0-23.207-9.101-25.494-21.1-3.857 3.009-8.689 4.819-13.946 4.819-12.534 0-22.732-10.198-22.732-22.732 0-4.651 1.432-9.162 4.077-12.956-5.060-4.981-7.915-11.733-7.915-18.907 0-13.723 10.46-25.048 23.823-26.427v-25.406h5.494v25.406c7.401 0.765 13.891 4.594 18.228 10.176 4.561-3.504 9.965-5.635 15.72-6.149v-29.928h5.49zM329.19 88.085v8.54l10.467 10.469-3.882 3.882-6.585-6.585v12.991h-5.494v-3.926l-7.497 7.499-3.884-3.884 11.381-11.381v-17.607c-10.326 1.353-18.333 10.189-18.333 20.878 0 6.413 2.879 12.402 7.896 16.435l2.254 1.81-1.926 2.158c-2.83 3.171-4.388 7.238-4.388 11.458 0 9.508 7.733 17.242 17.24 17.242s17.242-7.733 17.242-17.242c0-4.22-1.559-8.289-4.388-11.458l-1.926-2.158 2.254-1.81c5.017-4.034 7.896-10.022 7.896-16.435 0.006-10.689-7.999-19.525-18.327-20.876zM350.323 97.386c1.707 3.504 2.692 7.423 2.692 11.575 0 7.172-2.855 13.924-7.915 18.907 2.644 3.794 4.077 8.305 4.077 12.956 0 4.603-1.385 8.885-3.747 12.468-0.006 0.193-0.020 0.383-0.020 0.578 0 11.289 9.184 20.473 20.475 20.473s20.476-9.184 20.476-20.473c0-5.010-1.85-9.844-5.212-13.609l-1.926-2.158 2.254-1.81c5.934-4.77 9.34-11.856 9.34-19.439 0-12.818-9.727-23.401-22.187-24.775v10.623l12.294 12.294-3.884 3.882-8.41-8.41v16.165h-5.492v-5.632l-9.468 9.468-3.882-3.884 13.35-13.35v-21.157c-4.707 0.515-9.12 2.344-12.815 5.307zM1077.968 127.273c-2.848 0-5.525-1.108-7.539-3.123-2.017-2.015-3.125-4.693-3.125-7.541 0-2.85 1.108-5.527 3.125-7.541 2.015-2.015 4.693-3.125 7.539-3.125 2.85 0 5.527 1.109 7.541 3.125 2.015 2.014 3.125 4.691 3.125 7.541 0 2.848-1.109 5.527-3.125 7.541s-4.691 3.123-7.541 3.123zM1081.626 112.953c-1.955-1.953-5.36-1.953-7.315 0-0.977 0.977-1.515 2.276-1.515 3.657 0 1.383 0.539 2.679 1.515 3.658 0.977 0.977 2.276 1.515 3.657 1.515 1.383 0 2.681-0.537 3.658-1.515s1.515-2.276 1.515-3.658-0.535-2.679-1.515-3.657zM1107.771 58.034v28.652c0 3.517-2.256 6.494-5.388 7.625v42.198c0 7.488-6.092 13.579-13.579 13.579s-13.579-6.092-13.579-13.579v-0.614c-3.24-0.546-6.345-2.054-8.839-4.548l3.884-3.882c4.245 4.247 11.155 4.247 15.402 0l3.882 3.882c-2.492 2.494-5.6 4.001-8.837 4.548v0.614c0 4.462 3.627 8.089 8.087 8.089s8.087-3.627 8.087-8.089v-42.198c-3.132-1.133-5.39-4.108-5.39-7.625v-28.652h5.492v28.652c0 1.458 1.185 2.644 2.643 2.644s2.643-1.185 2.643-2.644v-28.652h5.492zM1534.043 127.273c-2.848 0-5.525-1.108-7.541-3.123s-3.123-4.693-3.123-7.541c0-2.85 1.108-5.527 3.123-7.541s4.693-3.125 7.541-3.125 5.525 1.109 7.541 3.125c2.015 2.014 3.125 4.691 3.125 7.541 0 2.848-1.109 5.527-3.125 7.541s-4.693 3.123-7.541 3.123zM1537.7 112.953c-1.955-1.953-5.36-1.953-7.315 0-0.977 0.977-1.515 2.276-1.515 3.657 0 1.383 0.537 2.679 1.515 3.658 0.977 0.977 2.276 1.515 3.658 1.515s2.679-0.537 3.658-1.515c0.976-0.977 1.517-2.276 1.517-3.658-0.002-1.383-0.539-2.679-1.518-3.657zM1563.845 58.034v28.652c0 3.517-2.256 6.494-5.388 7.625v42.198c0 7.488-6.092 13.579-13.579 13.579s-13.579-6.092-13.579-13.579v-0.614c-3.239-0.546-6.345-2.054-8.839-4.548l3.884-3.882c4.247 4.247 11.155 4.247 15.402 0l3.882 3.882c-2.492 2.494-5.599 4.001-8.837 4.548v0.614c0 4.462 3.627 8.089 8.087 8.089s8.087-3.627 8.087-8.089v-42.198c-3.132-1.133-5.39-4.108-5.39-7.625v-28.652h5.492v28.652c0 1.458 1.185 2.644 2.643 2.644s2.643-1.185 2.643-2.644v-28.652h5.492zM1464.651 624.053h14.097c1.517 0 2.747 1.229 2.747 2.745 0 8.087 6.578 14.667 14.667 14.667 3.471 0 6.84-1.234 9.486-3.479 1.157-0.981 2.892-0.836 3.869 0.317 0.981 1.157 0.838 2.89-0.317 3.871-1.792 1.52-3.825 2.698-5.998 3.508 3.77 13.414 16.149 22.939 30.273 22.939 12.674 0 24.051-7.541 28.987-19.215 0.592-1.396 2.199-2.054 3.598-1.458 1.397 0.59 2.052 2.202 1.46 3.598-0.638 1.509-1.383 2.947-2.197 4.333 1.119 0.172 2.252 0.262 3.393 0.262 12.133 0 22.006-9.871 22.006-22.006 0-1.517 1.23-2.745 2.745-2.745 1.517 0 2.747 1.229 2.747 2.745 0 1.258-0.116 2.485-0.279 3.699 0.013 0 0.028 0.002 0.040 0.002 6.886 0 12.49-5.602 12.49-12.49 0-1.517 1.23-2.745 2.745-2.745h13.889c1.515 0 2.745 1.229 2.745 2.745s-1.23 2.747-2.745 2.747h-11.351c-1.328 8.617-8.791 15.237-17.772 15.237-0.451 0-0.902-0.035-1.352-0.068-3.776 10.684-13.948 18.373-25.908 18.373-2.307 0-4.586-0.303-6.802-0.866-6.903 8.326-17.238 13.345-28.441 13.345-16.69 0-31.296-11.326-35.629-27.232-0.559 0.048-1.12 0.075-1.685 0.075-10.185 0-18.63-7.592-19.974-17.414h-11.537c-1.517 0-2.745-1.229-2.745-2.747s1.23-2.745 2.747-2.745zM631.573 691.906c-9.89 0-18.094-7.354-19.435-16.88h-11.111c-1.517 0-2.745-1.229-2.745-2.747s1.229-2.747 2.745-2.747h13.666c1.517 0 2.747 1.229 2.747 2.747 0 7.794 6.34 14.135 14.133 14.135 3.349 0 6.594-1.19 9.14-3.354 1.152-0.979 2.886-0.84 3.869 0.317 0.981 1.155 0.84 2.888-0.317 3.869-1.722 1.463-3.679 2.6-5.767 3.387 3.668 12.93 15.617 22.103 29.248 22.103 12.25 0 23.251-7.291 28.023-18.575 0.59-1.397 2.201-2.052 3.6-1.458 1.396 0.59 2.048 2.201 1.458 3.598-0.603 1.427-1.308 2.789-2.072 4.102 1.040 0.154 2.092 0.235 3.154 0.235 11.716 0 21.249-9.532 21.249-21.249 0-1.517 1.229-2.745 2.747-2.745s2.745 1.229 2.745 2.745c0 1.19-0.106 2.353-0.257 3.501 6.604-0.031 11.966-5.412 11.966-12.021 0-1.517 1.229-2.747 2.747-2.747h13.464c1.517 0 2.747 1.229 2.747 2.747s-1.229 2.745-2.747 2.745h-10.931c-1.322 8.36-8.577 14.771-17.302 14.771-0.418 0-0.834-0.033-1.253-0.062-3.69 10.357-13.565 17.806-25.175 17.806-2.226 0-4.423-0.288-6.56-0.827-6.706 8.063-16.737 12.923-27.603 12.923-16.193 0-30.37-10.974-34.602-26.396-0.519 0.048-1.043 0.075-1.57 0.075zM1591.084 756.691h12.431c1.517 0 2.747 1.229 2.747 2.745 0 6.954 5.657 12.611 12.611 12.611 2.985 0 5.883-1.062 8.155-2.991 1.157-0.985 2.888-0.84 3.869 0.317s0.84 2.89-0.315 3.869c-1.535 1.3-3.27 2.316-5.118 3.039 3.378 11.546 14.102 19.715 26.317 19.715 11.045 0 20.964-6.572 25.266-16.748 0.589-1.396 2.201-2.056 3.598-1.458 1.399 0.59 2.050 2.202 1.462 3.598-0.504 1.19-1.089 2.327-1.718 3.433 0.816 0.106 1.641 0.171 2.472 0.171 10.522 0 19.083-8.56 19.083-19.083 0-1.517 1.229-2.747 2.745-2.747s2.747 1.229 2.747 2.747c0 0.99-0.077 1.962-0.191 2.921 5.736-0.183 10.35-4.894 10.35-10.673 0-1.517 1.229-2.747 2.745-2.747h12.25c1.517 0 2.747 1.229 2.747 2.747s-1.23 2.745-2.747 2.745h-9.736c-1.309 7.621-7.962 13.438-15.951 13.438-0.325 0-0.647-0.029-0.97-0.050-3.438 9.43-12.466 16.195-23.071 16.195-1.993 0-3.965-0.249-5.881-0.721-6.149 7.319-15.296 11.725-25.199 11.725-14.777 0-27.727-9.967-31.672-24.005-0.411 0.029-0.823 0.055-1.236 0.055-9.050 0-16.569-6.675-17.896-15.358h-9.893c-1.515 0-2.745-1.229-2.745-2.747s1.229-2.745 2.743-2.745zM438.214 773.984h17.37c1.518 0 2.747 1.229 2.747 2.747 0 10.317 8.395 18.711 18.712 18.711 4.431 0 8.727-1.575 12.1-4.438 1.159-0.983 2.89-0.84 3.869 0.315 0.981 1.157 0.84 2.888-0.315 3.871-2.298 1.949-4.929 3.422-7.739 4.394 4.522 17.108 20.168 29.319 38.063 29.319 15.872 0 30.124-9.446 36.308-24.067 0.59-1.396 2.199-2.054 3.598-1.458 1.397 0.59 2.050 2.201 1.46 3.598-0.895 2.114-1.94 4.132-3.116 6.046 1.7 0.321 3.429 0.501 5.177 0.501 15.303 0 27.753-12.452 27.753-27.753 0-1.517 1.229-2.747 2.747-2.747s2.745 1.229 2.745 2.747c0 1.759-0.178 3.473-0.442 5.159 0.264 0.013 0.524 0.040 0.789 0.040 8.837 0 16.028-7.19 16.028-16.029 0-1.518 1.229-2.747 2.745-2.747h17.115c1.517 0 2.745 1.229 2.745 2.747s-1.229 2.745-2.745 2.745h-14.544c-1.352 10.576-10.409 18.775-21.346 18.775-0.704 0-1.407-0.039-2.102-0.106-4.434 13.152-16.86 22.662-31.489 22.662-2.929 0-5.821-0.403-8.624-1.155-8.384 10.301-21.052 16.532-34.802 16.532-20.458 0-38.336-14.014-43.421-33.614-0.847 0.090-1.7 0.15-2.558 0.15-12.417 0-22.681-9.398-24.049-21.456h-14.781c-1.517 0-2.745-1.229-2.745-2.747s1.23-2.742 2.747-2.742zM163.451 564.439h13.348c1.517 0 2.747 1.229 2.747 2.745 0 7.579 6.165 13.745 13.743 13.745 3.255 0 6.411-1.157 8.887-3.261 1.159-0.983 2.89-0.84 3.871 0.317 0.981 1.155 0.84 2.888-0.317 3.869-1.674 1.421-3.574 2.527-5.6 3.297 3.592 12.575 15.228 21.491 28.494 21.491 11.94 0 22.662-7.106 27.315-18.105 0.59-1.396 2.201-2.054 3.6-1.458 1.396 0.59 2.050 2.202 1.458 3.598-0.578 1.366-1.253 2.67-1.981 3.932 0.983 0.141 1.977 0.218 2.98 0.218 11.41 0 20.693-9.283 20.693-20.693 0-1.517 1.229-2.747 2.747-2.747s2.745 1.229 2.745 2.747c0 1.139-0.097 2.252-0.238 3.352 6.38-0.072 11.549-5.278 11.549-11.676 0-1.517 1.23-2.747 2.747-2.747h13.15c1.517 0 2.747 1.229 2.747 2.747s-1.229 2.747-2.747 2.747h-10.623c-1.319 8.17-8.419 14.429-16.956 14.429-0.394 0-0.787-0.033-1.181-0.059-3.624 10.121-13.282 17.394-24.634 17.394-2.166 0-4.304-0.277-6.385-0.8-6.563 7.873-16.367 12.615-26.987 12.615-15.828 0-29.691-10.715-33.851-25.782-0.493 0.039-0.988 0.066-1.484 0.066-9.673 0-17.702-7.179-19.039-16.49h-10.798c-1.518 0-2.747-1.229-2.747-2.747s1.227-2.745 2.745-2.745zM989.768 798.398h18.465c1.517 0 2.747 1.229 2.747 2.747 0 11.063 8.999 20.062 20.060 20.062 4.751 0 9.36-1.689 12.976-4.759 1.159-0.981 2.886-0.838 3.869 0.315 0.981 1.157 0.84 2.89-0.315 3.871-2.466 2.092-5.3 3.662-8.322 4.689 4.772 18.344 21.513 31.456 40.669 31.456 16.943 0 32.154-10.084 38.754-25.688 0.59-1.396 2.199-2.052 3.598-1.458 1.397 0.59 2.052 2.202 1.46 3.598-0.981 2.32-2.14 4.524-3.44 6.616 1.898 0.376 3.833 0.585 5.789 0.585 16.363 0 29.677-13.312 29.677-29.675 0-1.518 1.23-2.747 2.747-2.747 1.515 0 2.745 1.229 2.745 2.747 0 1.926-0.196 3.803-0.497 5.646 0.345 0.020 0.688 0.051 1.034 0.051 9.492 0 17.212-7.722 17.212-17.212 0-1.517 1.23-2.747 2.745-2.747h18.195c1.515 0 2.745 1.229 2.745 2.747s-1.23 2.745-2.745 2.745h-15.613c-1.361 11.23-10.95 19.959-22.541 19.959-0.785 0-1.57-0.042-2.349-0.123-4.652 13.981-17.834 24.102-33.357 24.102-3.138 0-6.233-0.436-9.233-1.251-8.881 10.961-22.329 17.597-36.93 17.597-21.72 0-40.693-14.913-46.027-35.75-0.943 0.106-1.893 0.18-2.852 0.18-13.163 0-24.032-10.004-25.406-22.809h-15.866c-1.515 0-2.745-1.229-2.745-2.747s1.236-2.749 2.751-2.749zM795.836 492.1l59.346 30.656h64.015v5.492h-65.35l-58.011-29.967zM919.197 507.929h-65.35l-32.686-16.886v-6.18l34.021 17.574h64.015zM919.197 584.853v5.492h-65.35l-58.011-29.967v-6.182l59.346 30.656zM795.836 532.833l59.346 30.654h64.015v5.492h-65.35l-58.011-29.967zM795.836 513.466l59.346 30.656h64.015v5.49h-65.35l-58.011-29.965z" />
<glyph unicode="&#xe933;" d="M359.617 157.184l-152.769-83.33c-8.965-4.888-17.022-10.897-24.518-17.447 89.069-75.1 204.046-120.407 329.67-120.407 124.696 0 238.94 44.631 327.757 118.707-8.192 6.917-17.080 13.138-26.933 18.046l-163.589 81.785c-21.137 10.568-34.488 32.169-34.488 55.798v64.184c4.598 5.236 9.854 11.96 15.476 19.9 22.296 31.493 39.163 66.135 50.852 102.477 20.982 6.472 36.439 25.851 36.439 48.882v68.511c0 15.070-6.704 28.537-17.118 37.965v99.038c0 0 20.345 154.122-188.377 154.122s-188.377-154.122-188.377-154.122v-99.038c-10.433-9.429-17.118-22.895-17.118-37.965v-68.511c0-18.046 9.486-33.927 23.687-43.105 17.118-74.52 61.942-128.155 61.942-128.155v-62.599c-0.019-22.798-12.501-43.8-32.536-54.736z" />
<glyph unicode="&#xe934;" d="M520.752 959.923c-282.721 4.83-515.845-220.45-520.675-503.17-2.744-160.304 68.705-304.379 182.465-400.191 7.438 6.492 15.418 12.443 24.286 17.273l152.769 83.33c20.036 10.936 32.517 31.937 32.517 54.774v62.599c0 0-44.843 53.634-61.942 128.155-14.181 9.177-23.687 25.040-23.687 43.105v68.511c0 15.070 6.704 28.537 17.118 37.965v99.038c0 0-20.345 154.122 188.377 154.122s188.377-154.122 188.377-154.122v-99.038c10.433-9.429 17.118-22.895 17.118-37.965v-68.511c0-23.030-15.457-42.409-36.439-48.882-11.689-36.342-28.556-70.984-50.852-102.477-5.622-7.941-10.878-14.664-15.476-19.9v-64.184c0-23.629 13.351-45.249 34.488-55.798l163.589-81.785c9.815-4.907 18.683-11.109 26.856-18.007 110.322 92.005 181.596 229.569 184.243 384.483 4.869 282.721-220.392 515.845-503.132 520.675z" />
<glyph unicode="&#xe935;" d="M875.52 812.843c-97.28 94.037-225.28 147.157-361.6 147.157-391.253 0-636.928-423.893-441.557-761.088l-72.363-262.912 270.293 70.485c117.76-63.616 214.229-57.984 243.883-61.739 453.675 0 679.509 548.864 360.704 866.432z" />
<glyph unicode="&#xe936;" d="M514.859 31.957l-0.256 0.043h-0.683c-135.765 0-222.507 64.299-231.040 68.011l-160-41.6 42.88 155.52-10.197 16c-42.24 67.243-64.683 144.683-64.683 224.427 0 375.168 458.453 562.773 723.755 297.6 264.661-262.4 78.848-720-299.776-720z" />
<glyph unicode="&#xe937;" d="M746.965 349.568l-0.384-3.2c-12.843 6.4-75.392 36.992-87.040 41.216-26.155 9.685-18.773 1.536-68.992-55.979-7.467-8.32-14.891-8.96-27.563-3.2-12.8 6.4-53.888 19.84-102.528 63.36-37.888 33.92-63.317 75.52-70.827 88.32-12.501 21.589 13.653 24.661 37.461 69.717 4.267 8.96 2.091 16-1.067 22.357-3.2 6.4-28.672 69.12-39.339 94.123-10.24 24.917-20.779 21.76-28.672 21.76-24.576 2.133-42.539 1.792-58.368-14.677-68.864-75.691-51.499-153.771 7.424-236.8 115.797-151.552 177.493-179.456 290.304-218.197 30.464-9.685 58.24-8.32 80.213-5.163 24.491 3.883 75.392 30.763 86.016 60.843 10.88 30.080 10.88 55.040 7.68 60.8-3.157 5.76-11.52 8.96-24.32 14.72z" />
</font>
</defs>
</svg>
